<svg xmlns="http://www.w3.org/2000/svg" xmlns:xlink="http://www.w3.org/1999/xlink" contentStyleType="text/css" height="786px" preserveAspectRatio="none" style="width:2107px;height:786px;background:#FFFFFF;" version="1.1" viewBox="0 0 2107 786" width="2107px" zoomAndPan="magnify"><title>Refor&#231;a+: Diagrama de Arquitetura DevOps (CI/CD)</title><defs/><g><text fill="#000000" font-family="Arial" font-size="14" font-weight="bold" lengthAdjust="spacing" textLength="405.6377" x="843.9312" y="22.9951">Refor&#231;a+: Diagrama de Arquitetura DevOps (CI/CD)</text><!--cluster Plan--><g id="cluster_Plan"><rect fill="#F7F9FC" height="105" rx="5" ry="5" style="stroke:#2F4F7F;stroke-width:1;" width="192" x="249" y="406.2969"/><text fill="#000000" font-family="Arial" font-size="14" font-weight="bold" lengthAdjust="spacing" textLength="98.0547" x="295.9727" y="421.292">1. PLANEJAR</text></g><!--cluster Code--><g id="cluster_Code"><rect fill="#F7F9FC" height="110" rx="5" ry="5" style="stroke:#2F4F7F;stroke-width:1;" width="938" x="485.5" y="349.2969"/><text fill="#000000" font-family="Arial" font-size="14" font-weight="bold" lengthAdjust="spacing" textLength="105.6016" x="901.6992" y="364.292">2. CODIFICAR</text></g><!--cluster CI--><g id="cluster_CI"><rect fill="#F7F9FC" height="193" rx="5" ry="5" style="stroke:#2F4F7F;stroke-width:1;" width="954" x="7" y="587.2969"/><text fill="#000000" font-family="Arial" font-size="14" font-weight="bold" lengthAdjust="spacing" textLength="345.3105" x="311.3447" y="602.292">3. INTEGRA&#199;&#195;O CONT&#205;NUA (GitHub Actions)</text></g><!--cluster CD--><g id="cluster_CD"><rect fill="#F7F9FC" height="193" rx="5" ry="5" style="stroke:#2F4F7F;stroke-width:1;" width="222" x="1233" y="546.2969"/><text fill="#000000" font-family="Arial" font-size="14" font-weight="bold" lengthAdjust="spacing" textLength="180.8789" x="1253.5605" y="561.292">4. ENTREGA CONT&#205;NUA</text></g><!--cluster Deploy--><g id="cluster_Deploy"><rect fill="#F7F9FC" height="281" rx="5" ry="5" style="stroke:#2F4F7F;stroke-width:1;" width="222" x="1233.5" y="44.2969"/><text fill="#000000" font-family="Arial" font-size="14" font-weight="bold" lengthAdjust="spacing" textLength="206.5547" x="1241.2227" y="59.292">5. IMPLANTA&#199;&#195;O (Deploy)</text></g><!--cluster Ops--><g id="cluster_Ops"><rect fill="#F7F9FC" height="193" rx="5" ry="5" style="stroke:#2F4F7F;stroke-width:1;" width="355" x="1488.5" y="132.2969"/><text fill="#000000" font-family="Arial" font-size="14" font-weight="bold" lengthAdjust="spacing" textLength="199.9033" x="1566.0483" y="147.292">6. OPERAR e MONITORAR</text></g><!--cluster Fb--><g id="cluster_Fb"><rect fill="#F7F9FC" height="105" rx="5" ry="5" style="stroke:#2F4F7F;stroke-width:1;" width="225" x="1876.5" y="347.2969"/><text fill="#000000" font-family="Arial" font-size="14" font-weight="bold" lengthAdjust="spacing" textLength="102.874" x="1937.563" y="362.292">7. FEEDBACK</text></g><!--entity Issues--><g id="elem_Issues"><rect fill="#F7F9FC" height="52.5938" rx="5" ry="5" style="stroke:#2F4F7F;stroke-width:0.5;" width="160.2734" x="265" y="441.7969"/><text fill="#000000" font-family="Arial" font-size="14" lengthAdjust="spacing" textLength="96.4619" x="275" y="464.792">GitHub Issues</text><text fill="#000000" font-family="Arial" font-size="14" lengthAdjust="spacing" textLength="140.2734" x="275" y="481.0889">+ Projects (Kanban)</text></g><!--entity IDE--><g id="elem_IDE"><rect fill="#F7F9FC" height="52.5938" rx="5" ry="5" style="stroke:#2F4F7F;stroke-width:0.5;" width="78.7549" x="501.5" y="385.7969"/><text fill="#000000" font-family="Arial" font-size="14" lengthAdjust="spacing" textLength="58.7549" x="511.5" y="408.792">VS Code</text><text fill="#000000" font-family="Arial" font-size="14" lengthAdjust="spacing" textLength="36.4082" x="511.5" y="425.0889">+ Git</text></g><!--entity Repo--><g id="elem_Repo"><rect fill="#F7F9FC" height="52.5938" rx="5" ry="5" style="stroke:#2F4F7F;stroke-width:0.5;" width="275.7529" x="708" y="384.7969"/><text fill="#000000" font-family="Arial" font-size="14" lengthAdjust="spacing" textLength="128.0371" x="718" y="407.792">GitHub Repository</text><text fill="#000000" font-family="Arial" font-size="14" lengthAdjust="spacing" textLength="255.7529" x="718" y="424.0889">(branches: main, develop, feature/*)</text></g><!--entity PR--><g id="elem_PR"><rect fill="#F7F9FC" height="52.5938" rx="5" ry="5" style="stroke:#2F4F7F;stroke-width:0.5;" width="127.0508" x="1280.5" y="389.7969"/><text fill="#000000" font-family="Arial" font-size="14" lengthAdjust="spacing" textLength="87.042" x="1290.5" y="412.792">Pull Request</text><text fill="#000000" font-family="Arial" font-size="14" lengthAdjust="spacing" textLength="107.0508" x="1290.5" y="429.0889">+ Code Review</text></g><!--entity Lint--><g id="elem_Lint"><rect fill="#F7F9FC" height="52.5938" rx="5" ry="5" style="stroke:#2F4F7F;stroke-width:0.5;" width="105.21" x="23" y="625.7969"/><text fill="#000000" font-family="Arial" font-size="14" lengthAdjust="spacing" textLength="85.21" x="33" y="648.792">Lint (ESLint)</text><text fill="#000000" font-family="Arial" font-size="14" lengthAdjust="spacing" textLength="68.2295" x="33" y="665.0889">+ Prettier</text></g><!--entity Test--><g id="elem_Test"><rect fill="#F7F9FC" height="52.5938" rx="5" ry="5" style="stroke:#2F4F7F;stroke-width:0.5;" width="131.5146" x="279" y="627.7969"/><text fill="#000000" font-family="Arial" font-size="14" lengthAdjust="spacing" textLength="111.5146" x="289" y="650.792">Testes unit&#225;rios</text><text fill="#000000" font-family="Arial" font-size="14" lengthAdjust="spacing" textLength="90.4189" x="289" y="667.0889">(Vitest / Jest)</text></g><!--entity Build--><g id="elem_Build"><rect fill="#F7F9FC" height="52.5938" rx="5" ry="5" style="stroke:#2F4F7F;stroke-width:0.5;" width="92.5908" x="494.5" y="634.7969"/><text fill="#000000" font-family="Arial" font-size="14" lengthAdjust="spacing" textLength="35.1436" x="504.5" y="657.792">Build</text><text fill="#000000" font-family="Arial" font-size="14" lengthAdjust="spacing" textLength="72.5908" x="504.5" y="674.0889">(Vite / tsc)</text></g><!--entity LH--><g id="elem_LH"><rect fill="#F7F9FC" height="52.5938" rx="5" ry="5" style="stroke:#2F4F7F;stroke-width:0.5;" width="126.4355" x="783" y="622.7969"/><text fill="#000000" font-family="Arial" font-size="14" lengthAdjust="spacing" textLength="99.8184" x="793" y="645.792">Auditoria PWA</text><text fill="#000000" font-family="Arial" font-size="14" lengthAdjust="spacing" textLength="106.4355" x="793" y="662.0889">(Lighthouse CI)</text></g><!--entity Sec--><g id="elem_Sec"><rect fill="#F7F9FC" height="52.5938" rx="5" ry="5" style="stroke:#2F4F7F;stroke-width:0.5;" width="197.5635" x="747" y="710.7969"/><text fill="#000000" font-family="Arial" font-size="14" lengthAdjust="spacing" textLength="74.7441" x="757" y="733.792">Seguran&#231;a</text><text fill="#000000" font-family="Arial" font-size="14" lengthAdjust="spacing" textLength="177.5635" x="757" y="750.0889">(npm audit, Dependabot)</text></g><!--entity Preview--><g id="elem_Preview"><rect fill="#F7F9FC" height="52.5938" rx="5" ry="5" style="stroke:#2F4F7F;stroke-width:0.5;" width="128.5205" x="1279.5" y="669.7969"/><text fill="#000000" font-family="Arial" font-size="14" lengthAdjust="spacing" textLength="108.5205" x="1289.5" y="692.792">Preview Deploy</text><text fill="#000000" font-family="Arial" font-size="14" lengthAdjust="spacing" textLength="56.752" x="1289.5" y="709.0889">(por PR)</text></g><!--entity Migr--><g id="elem_Migr"><rect fill="#F7F9FC" height="52.5938" rx="5" ry="5" style="stroke:#2F4F7F;stroke-width:0.5;" width="189.8457" x="1249" y="581.7969"/><text fill="#000000" font-family="Arial" font-size="14" lengthAdjust="spacing" textLength="123.4092" x="1259" y="604.792">Migra&#231;&#245;es Prisma</text><text fill="#000000" font-family="Arial" font-size="14" lengthAdjust="spacing" textLength="169.8457" x="1259" y="621.0889">(prisma migrate deploy)</text></g><!--entity Vercel--><g id="elem_Vercel"><rect fill="#F7F9FC" height="52.5938" rx="5" ry="5" style="stroke:#2F4F7F;stroke-width:0.5;" width="127.2217" x="1280.5" y="79.7969"/><text fill="#000000" font-family="Arial" font-size="14" lengthAdjust="spacing" textLength="44.1465" x="1290.5" y="102.792">Vercel</text><text fill="#000000" font-family="Arial" font-size="14" lengthAdjust="spacing" textLength="107.2217" x="1290.5" y="119.0889">(frontend PWA)</text></g><!--entity Render--><g id="elem_Render"><rect fill="#F7F9FC" height="52.5938" rx="5" ry="5" style="stroke:#2F4F7F;stroke-width:0.5;" width="107.042" x="1290.5" y="167.7969"/><text fill="#000000" font-family="Arial" font-size="14" lengthAdjust="spacing" textLength="50.4697" x="1300.5" y="190.792">Render</text><text fill="#000000" font-family="Arial" font-size="14" lengthAdjust="spacing" textLength="87.042" x="1300.5" y="207.0889">(API Docker)</text></g><!--entity Neon--><g id="elem_Neon"><rect fill="#F7F9FC" height="52.5938" rx="5" ry="5" style="stroke:#2F4F7F;stroke-width:0.5;" width="111.6768" x="1288" y="255.7969"/><text fill="#000000" font-family="Arial" font-size="14" lengthAdjust="spacing" textLength="36.5244" x="1298" y="278.792">Neon</text><text fill="#000000" font-family="Arial" font-size="14" lengthAdjust="spacing" textLength="91.6768" x="1298" y="295.0889">(PostgreSQL)</text></g><!--entity Logs--><g id="elem_Logs"><rect fill="#F7F9FC" height="52.5938" rx="5" ry="5" style="stroke:#2F4F7F;stroke-width:0.5;" width="139.1572" x="1504.5" y="167.7969"/><text fill="#000000" font-family="Arial" font-size="14" lengthAdjust="spacing" textLength="111.0156" x="1514.5" y="190.792">Logs e m&#233;tricas</text><text fill="#000000" font-family="Arial" font-size="14" lengthAdjust="spacing" textLength="119.1572" x="1514.5" y="207.0889">(Render / Vercel)</text></g><!--entity Uptime--><g id="elem_Uptime"><rect fill="#F7F9FC" height="52.5938" rx="5" ry="5" style="stroke:#2F4F7F;stroke-width:0.5;" width="122.9219" x="1704.5" y="255.7969"/><text fill="#000000" font-family="Arial" font-size="14" lengthAdjust="spacing" textLength="50.7637" x="1714.5" y="278.792">Uptime</text><text fill="#000000" font-family="Arial" font-size="14" lengthAdjust="spacing" textLength="102.9219" x="1714.5" y="295.0889">(UptimeRobot)</text></g><!--entity Sentry--><g id="elem_Sentry"><rect fill="#F7F9FC" height="52.5938" rx="5" ry="5" style="stroke:#2F4F7F;stroke-width:0.5;" width="109.1885" x="1711.5" y="167.7969"/><text fill="#000000" font-family="Arial" font-size="14" lengthAdjust="spacing" textLength="36.2168" x="1721.5" y="190.792">Erros</text><text fill="#000000" font-family="Arial" font-size="14" lengthAdjust="spacing" textLength="89.1885" x="1721.5" y="207.0889">(Sentry free)</text></g><!--entity Users--><g id="elem_Users"><rect fill="#F7F9FC" height="52.5938" rx="5" ry="5" style="stroke:#2F4F7F;stroke-width:0.5;" width="193.3662" x="1892.5" y="382.7969"/><text fill="#000000" font-family="Arial" font-size="14" lengthAdjust="spacing" textLength="173.3662" x="1902.5" y="405.792">Usu&#225;rios da comunidade</text><text fill="#000000" font-family="Arial" font-size="14" lengthAdjust="spacing" textLength="59.6777" x="1902.5" y="422.0889">+ Issues</text></g><!--entity Dev--><g id="elem_Dev"><ellipse cx="75.5103" cy="438.7969" fill="#F1F1F1" rx="8" ry="8" style="stroke:#181818;stroke-width:0.5;"/><path d="M75.5103,446.7969 L75.5103,473.7969 M62.5103,454.7969 L88.5103,454.7969 M75.5103,473.7969 L62.5103,488.7969 M75.5103,473.7969 L88.5103,488.7969 " fill="none" style="stroke:#181818;stroke-width:0.5;"/><text fill="#000000" font-family="Arial" font-size="14" lengthAdjust="spacing" textLength="105.0205" x="23" y="503.292">Desenvolvedor</text></g><!--link Dev to Issues--><g id="link_Dev_Issues"><path d="M128.08,468.2969 C166.87,468.2969 214.71,468.2969 258.93,468.2969 " fill="none" id="Dev-to-Issues" style="stroke:#181818;stroke-width:1;"/><polygon fill="#181818" points="264.93,468.2969,255.93,464.2969,259.93,468.2969,255.93,472.2969,264.93,468.2969" style="stroke:#181818;stroke-width:1;"/><text fill="#000000" font-family="Arial" font-size="13" lengthAdjust="spacing" textLength="73.9248" x="159" y="464.3638">cria tarefas</text></g><!--link Issues to IDE--><g id="link_Issues_IDE"><path d="M425.19,445.4369 C451.48,437.8469 473.8255,431.4012 495.6455,425.1012 " fill="none" id="Issues-to-IDE" style="stroke:#181818;stroke-width:1;"/><polygon fill="#181818" points="501.41,423.4369,491.6536,422.0904,496.6062,424.8239,493.8728,429.7765,501.41,423.4369" style="stroke:#181818;stroke-width:1;"/></g><!--link IDE to Repo--><g id="link_IDE_Repo"><path d="M580.68,412.1669 C613.07,412.0669 655.33,411.9275 701.78,411.7675 " fill="none" id="IDE-to-Repo" style="stroke:#181818;stroke-width:1;"/><polygon fill="#181818" points="707.78,411.7469,698.7663,407.7779,702.78,411.7641,698.7938,415.7779,707.78,411.7469" style="stroke:#181818;stroke-width:1;"/><text fill="#000000" font-family="Arial" font-size="13" lengthAdjust="spacing" textLength="52.5967" x="625" y="408.3638">git push</text></g><!--link Repo to PR--><g id="link_Repo_PR"><path d="M984.41,434.4069 C994.41,435.5669 1004.35,436.5469 1014,437.2969 C1103.95,444.2569 1127.09,444.7369 1217,437.2969 C1237.78,435.5769 1254.3669,433.3042 1274.5369,429.8342 " fill="none" id="Repo-to-PR" style="stroke:#181818;stroke-width:1;"/><polygon fill="#181818" points="1280.45,428.8169,1270.9021,426.4007,1275.5224,429.6646,1272.2585,434.2849,1280.45,428.8169" style="stroke:#181818;stroke-width:1;"/></g><!--link PR to Repo--><g id="link_PR_Repo"><path d="M1280.42,415.6669 C1206.42,414.9169 1087.0897,413.7175 990.1797,412.7375 " fill="none" id="PR-to-Repo" style="stroke:#181818;stroke-width:1;"/><polygon fill="#181818" points="984.18,412.6769,993.1391,416.7677,989.1797,412.7274,993.22,408.7681,984.18,412.6769" style="stroke:#181818;stroke-width:1;"/><text fill="#000000" font-family="Arial" font-size="13" lengthAdjust="spacing" textLength="103.6636" x="1064" y="409.3638">merge em main</text></g><!--link PR to Lint--><g id="link_PR_Lint"><path d="M1280.45,433.0169 C1260.21,441.2469 1239.32,453.1969 1225,470.2969 C1215.87,481.2069 1227.75,491.9669 1217,501.2969 C1169.29,542.6969 715.17,564.2969 652,564.2969 C344,564.2969 344,564.2969 344,564.2969 C264.55,564.2969 183.5606,597.1019 131.0706,623.0019 " fill="none" id="PR-to-Lint" style="stroke:#181818;stroke-width:1;"/><polygon fill="#181818" points="125.69,625.6569,135.5309,625.2615,130.1739,623.4444,131.991,618.0874,125.69,625.6569" style="stroke:#181818;stroke-width:1;"/><text fill="#000000" font-family="Arial" font-size="13" lengthAdjust="spacing" textLength="104.6221" x="489" y="560.3638">on: pull_request</text></g><!--link Lint to Test--><g id="link_Lint_Test"><path d="M128.08,652.6869 C171.04,653.0069 226.4802,653.4229 272.8402,653.7629 " fill="none" id="Lint-to-Test" style="stroke:#181818;stroke-width:1;"/><polygon fill="#181818" points="278.84,653.8069,269.8696,649.741,273.8401,653.7702,269.8109,657.7408,278.84,653.8069" style="stroke:#181818;stroke-width:1;"/></g><!--link Test to Build--><g id="link_Test_Build"><path d="M411.14,656.6469 C438.44,657.6369 463.5239,658.5417 488.3239,659.4317 " fill="none" id="Test-to-Build" style="stroke:#181818;stroke-width:1;"/><polygon fill="#181818" points="494.32,659.6469,485.4692,655.3267,489.3232,659.4676,485.1823,663.3215,494.32,659.6469" style="stroke:#181818;stroke-width:1;"/></g><!--link Build to LH--><g id="link_Build_LH"><path d="M587.69,659.4869 C639.68,657.4269 718.8947,654.2946 776.8947,651.9946 " fill="none" id="Build-to-LH" style="stroke:#181818;stroke-width:1;"/><polygon fill="#181818" points="782.89,651.7569,773.7386,648.1166,777.8939,651.955,774.0556,656.1103,782.89,651.7569" style="stroke:#181818;stroke-width:1;"/></g><!--link Build to Sec--><g id="link_Build_Sec"><path d="M587.69,672.7569 C629.68,683.2869 687.5204,697.7968 741.0104,711.2168 " fill="none" id="Build-to-Sec" style="stroke:#181818;stroke-width:1;"/><polygon fill="#181818" points="746.83,712.6769,739.0739,706.607,741.9803,711.4601,737.1272,714.3665,746.83,712.6769" style="stroke:#181818;stroke-width:1;"/></g><!--link Sec to Preview--><g id="link_Sec_Preview"><path d="M945.29,729.1769 C1044.42,720.9769 1188.5704,709.0609 1273.1804,702.0709 " fill="none" id="Sec-to-Preview" style="stroke:#181818;stroke-width:1;"/><polygon fill="#181818" points="1279.16,701.5769,1269.8612,698.3315,1274.177,701.9885,1270.5199,706.3043,1279.16,701.5769" style="stroke:#181818;stroke-width:1;"/></g><!--link LH to Preview--><g id="link_LH_Preview"><path d="M909.07,655.1769 C1003.81,664.1569 1177.6068,680.6209 1273.3268,689.6909 " fill="none" id="LH-to-Preview" style="stroke:#181818;stroke-width:1;"/><polygon fill="#181818" points="1279.3,690.2569,1270.7175,685.4257,1274.3223,689.7852,1269.9628,693.39,1279.3,690.2569" style="stroke:#181818;stroke-width:1;"/></g><!--link Preview to PR--><g id="link_Preview_PR"><path d="M1279.29,681.0869 C1222.17,663.6569 1143.2,628.7169 1111.5,563.7969 C1074.43,487.8769 1193.5286,447.8039 1274.4386,429.4539 " fill="none" id="Preview-to-PR" style="stroke:#181818;stroke-width:1;"/><polygon fill="#181818" points="1280.29,428.1269,1270.6282,426.2165,1275.4138,429.2328,1272.3976,434.0184,1280.29,428.1269" style="stroke:#181818;stroke-width:1;"/><text fill="#000000" font-family="Arial" font-size="13" lengthAdjust="spacing" textLength="82.1387" x="1074.5" y="559.8638">status check</text></g><!--link Repo to Migr--><g id="link_Repo_Migr"><path d="M924.54,437.8169 C1032.01,474.5869 1213.51,536.7469 1217,538.2969 C1245.35,550.9169 1270.6241,564.7021 1294.4841,578.6921 " fill="none" id="Repo-to-Migr" style="stroke:#181818;stroke-width:1;"/><polygon fill="#181818" points="1299.66,581.7269,1293.9194,573.7241,1295.3468,579.1979,1289.8729,580.6252,1299.66,581.7269" style="stroke:#181818;stroke-width:1;"/><text fill="#000000" font-family="Arial" font-size="13" lengthAdjust="spacing" textLength="92.8218" x="1069.5" y="466.3638">on: push main</text></g><!--link Migr to Neon--><g id="link_Migr_Neon"><path d="M1248.91,599.4369 C1197.08,589.1969 1137.04,567.3269 1104.5,520.7969 C1070.12,471.6269 1071.55,435.9369 1104.5,385.7969 C1144.99,324.1869 1224.892,300.1334 1282.022,290.0134 " fill="none" id="Migr-to-Neon" style="stroke:#181818;stroke-width:1;"/><polygon fill="#181818" points="1287.93,288.9669,1278.3703,286.598,1283.0066,289.839,1279.7657,294.4754,1287.93,288.9669" style="stroke:#181818;stroke-width:1;"/></g><!--link Repo to Vercel--><g id="link_Repo_Vercel"><path d="M863.37,384.5569 C890,343.1869 946.57,263.7269 1014,218.2969 C1097.07,162.3369 1204.8661,133.0804 1274.5261,118.5704 " fill="none" id="Repo-to-Vercel" style="stroke:#181818;stroke-width:1;"/><polygon fill="#181818" points="1280.4,117.3469,1270.7734,115.2662,1275.5051,118.3665,1272.4048,123.0981,1280.4,117.3469" style="stroke:#181818;stroke-width:1;"/><text fill="#000000" font-family="Arial" font-size="13" lengthAdjust="spacing" textLength="121.5894" x="1055" y="130.3638">deploy autom&#225;tico</text></g><!--link Repo to Render--><g id="link_Repo_Render"><path d="M901.85,384.6769 C974.91,349.5769 1108.5,286.6069 1225,238.2969 C1246.21,229.5069 1264.2369,222.583 1284.7669,215.053 " fill="none" id="Repo-to-Render" style="stroke:#181818;stroke-width:1;"/><polygon fill="#181818" points="1290.4,212.9869,1280.573,212.3306,1285.7058,214.7086,1283.3278,219.8414,1290.4,212.9869" style="stroke:#181818;stroke-width:1;"/><text fill="#000000" font-family="Arial" font-size="13" lengthAdjust="spacing" textLength="201.646" x="1015" y="239.3638">deploy autom&#225;tico (Dockerfile)</text></g><!--link Vercel to Logs--><g id="link_Vercel_Logs"><path d="M1407.54,129.1669 C1425.63,135.8769 1445.38,143.2969 1463.5,150.2969 C1477.83,155.8369 1487.5999,159.6765 1502.1099,165.4865 " fill="none" id="Vercel-to-Logs" style="stroke:#181818;stroke-width:1;"/><polygon fill="#181818" points="1507.68,167.7169,1500.8118,160.658,1503.0383,165.8583,1497.838,168.0848,1507.68,167.7169" style="stroke:#181818;stroke-width:1;"/></g><!--link Render to Logs--><g id="link_Render_Logs"><path d="M1397.59,194.2969 C1429.29,194.2969 1464.01,194.2969 1498.24,194.2969 " fill="none" id="Render-to-Logs" style="stroke:#181818;stroke-width:1;"/><polygon fill="#181818" points="1504.24,194.2969,1495.24,190.2969,1499.24,194.2969,1495.24,198.2969,1504.24,194.2969" style="stroke:#181818;stroke-width:1;"/></g><!--link Logs to Sentry--><g id="link_Logs_Sentry"><path d="M1643.59,194.2969 C1665.92,194.2969 1684.35,194.2969 1705.41,194.2969 " fill="none" id="Logs-to-Sentry" style="stroke:#181818;stroke-width:1;"/><polygon fill="#181818" points="1711.41,194.2969,1702.41,190.2969,1706.41,194.2969,1702.41,198.2969,1711.41,194.2969" style="stroke:#181818;stroke-width:1;"/></g><!--link Logs to Uptime--><g id="link_Logs_Uptime"><path d="M1632.26,220.8169 C1656.08,231.8469 1678.2351,242.1164 1702.0851,253.1564 " fill="none" id="Logs-to-Uptime" style="stroke:#181818;stroke-width:1;"/><polygon fill="#181818" points="1707.53,255.6769,1701.0429,248.2663,1702.9925,253.5765,1697.6823,255.5262,1707.53,255.6769" style="stroke:#181818;stroke-width:1;"/></g><!--link Sentry to Users--><g id="link_Sentry_Users"><path d="M1820.51,217.8369 C1831.3,223.7469 1842.18,230.6269 1851.5,238.2969 C1903.41,281.0269 1945.5711,341.3434 1968.6411,377.6334 " fill="none" id="Sentry-to-Users" style="stroke:#181818;stroke-width:1;"/><polygon fill="#181818" points="1971.86,382.6969,1970.4073,372.9557,1969.1776,378.4773,1963.656,377.2476,1971.86,382.6969" style="stroke:#181818;stroke-width:1;"/></g><!--link Users to Issues--><g id="link_Users_Issues"><path d="M1947.07,435.7969 C1904.04,461.0669 1833.49,495.2969 1767,495.2969 C1471.5,495.2969 1471.5,495.2969 1471.5,495.2969 C1354.19,495.2969 1333.26,549.5969 1217,565.2969 C925.8,604.6169 584.0715,530.899 430.9315,491.579 " fill="none" id="Users-to-Issues" style="stroke:#181818;stroke-width:1;"/><polygon fill="#181818" points="425.12,490.0869,432.8425,496.1994,429.9629,491.3303,434.832,488.4508,425.12,490.0869" style="stroke:#181818;stroke-width:1;"/><text fill="#000000" font-family="Arial" font-size="13" lengthAdjust="spacing" textLength="88.8926" x="1300" y="492.3638">retroalimenta</text></g><!--SRC=[RLJDSjis4BxpANRSYzmuSlFNJ7Ne32rIjX9POYavlMIc0v4h2ZK9C02eJARJKmuzzI5oolG1-WHyiIu0MXRP74G1kz_-OFVRDToK22dkf6g_iYSJY3Wh5AiOv0YX-j1mWwPH328yh6eDe-dySXgT1_gUYveH4FIUvV8Z5mNiMAdnH9FZZZMbcKbXbgooxZWhJ_GACyD4GV7_202kM7PVADc8V2fBgU2xsUlPJxEfrKYLe-gapsSlIK7Ir4ELG0NFVWZ-34hS6J0I52_s1d9ktNCfWe1bXYpF8jGe3h8yO2xL6J1jtnG4ZrcSFHj3iWYNyPimTVgaPCBbTeAvvkQcsS9SwmRrU_444YL_9pMLvYqJMoREdQdNKrQd_f-FORgAvhFvj0imbJaE0xnREx5rJR6yioZ-PX8frb9pUjodzsAqLKnaUzGJg1WN5rJz0vQole0TCkeWNdxlCxD6VMz9KvOa_a096nlMPPNYWUD7NuPqy8uNOvWlD_5r6hP_jPzNzAZbflrxUHV2gCiiTANNFk9qFdpZWWi3etXj_yzz4T4OZhujLjh7RoWprD08RjelYaig_EWTCLCRk8GtzES3MLZVyAhXPTw12Mfqvf5EteU6JMvBoHaaluPaih0qsij68pt0Mork-YPhB6Wq10qEuKLT0RC-BeXNDOgSRMMNrngpGGLVZY5URjBuEdmidgzLDAmLbSPsmZejfMrqJMHEKk-vK_OjRZbDSFkr_HSjWElAfbUx0rHMHxN8dJVlnE87-RsY3j_QMTXqBHv59mR-_3_Yeigmf50xHHDF1R25z0PUrOUdX415y32PGoIpUrGF1BMAFdY9KX0qaTeK2jU_B3pKYWUP_pY6LHAdOGe8jwlbVBDAks6pwsl8GrbembNjFqRnZ5bQ-UZ45PzprtZ2zItlQiCh6jAHFwJos6mlwADZfHndroYC-WGxXVZ032iOFE7r66Pn75s5qxSEDDiEyxxJZPy3o1baigB1o9dV6Nxn-4mqAhU2QC_1qwS_TpgOG6PfRfYY1Qs3Jke0j6ZevyvsJn2qu0RgHky3TxSAMWT9wavkZ2SWnOGWPVcRyZiaS78BS0DfF-xcXyvzlVdDoSNE2FryX8xLYvlUzM4IV18KM1lQR1fewsNt3pbrQLUe2WIit39ypDrI_PYntdkj4rgjezCHwmb0Q3yhDDn6LkqNmpFv2EheyYqGpOnZzOwNU1vqtjoxBPiwm-FTKT4Nmb7YUE_ur577ILnVtRVVLbgYIhAIuCAm_m00]--></g></svg>